<svg width="20" height="20" viewBox="0 0 20 20" fill="none" xmlns="http://www.w3.org/2000/svg">
<path d="M18.8 10.2085C18.8 9.5585 18.7417 8.9335 18.6333 8.3335H10V11.8835H14.9333C14.7167 13.0252 14.0667 13.9918 13.0917 14.6418V16.9502H16.0667C17.8 15.3502 18.8 13.0002 18.8 10.2085V10.2085" fill="#4285F4"/>
<path d="M10 19.1667C12.475 19.1667 14.55 18.35 16.0667 16.95L13.0917 14.6417C12.275 15.1917 11.2333 15.525 10 15.525C7.61667 15.525 5.59167 13.9167 4.86667 11.75H1.81667V14.1167C3.325 17.1083 6.41667 19.1667 10 19.1667V19.1667" fill="#34A853"/>
<path d="M4.86667 11.7416C4.68334 11.1916 4.575 10.6083 4.575 9.99993C4.575 9.3916 4.68334 8.80827 4.86667 8.25827V5.8916H1.81667C1.19167 7.12493 0.833336 8.5166 0.833336 9.99993C0.833336 11.4833 1.19167 12.8749 1.81667 14.1083L4.86667 11.7416V11.7416" fill="#FBBC05"/>
<path d="M10 4.4835C11.35 4.4835 12.55 4.95016 13.5083 5.86683L16.1333 3.24183C14.5417 1.74183 12.475 0.833496 10 0.833496C6.41667 0.833496 3.325 2.89183 1.81667 5.89183L4.86667 8.2585C5.59167 6.09183 7.61667 4.4835 10 4.4835V4.4835" fill="#EA4335"/>
</svg>
