<svg width="60" height="60" viewBox="0 0 60 60" fill="none" xmlns="http://www.w3.org/2000/svg">
<path d="M40.641 21.967L39.6389 19.2354L43.87 22.3085L40.641 21.967Z" fill="black" stroke="black"/>
<path d="M18.706 52.6198C22.8554 58.5384 28.5043 60.9287 38.5254 59.6766C30.975 54.4549 27.8363 49.4328 27.8363 44.5385C27.8363 39.6442 29.6178 36.9126 33.7376 34.8638C37.8573 32.815 45.1046 35.6086 47.5444 36.9126C49.9841 38.2165 51.0789 37.8875 53.4456 37.7093C55.8124 37.5311 57.7939 35.7385 59.1242 33.3841C60.4051 29.788 60.2061 28.2997 59.0129 26.2134C57.8197 24.1272 45.2061 13.3518 45.2061 13.3518C45.2061 13.3518 46.3196 2.31117 46.2082 1.17296C46.0969 0.0347591 45.6515 -0.0790516 44.7607 0.0347604C43.87 0.148572 30.8426 5.72578 30.8426 5.72578C24.9199 6.85399 21.1919 7.36867 14.3635 8.11601L19.2627 10.5062C12.7393 11.1901 9.01125 13.0707 4.67649 17.7907L8.01685 18.5875C4.36436 20.0126 2.30092 21.754 0 25.6443L4.4538 24.6199C2.06046 30.6307 2.16624 34.2094 3.67439 40.7824C5.79621 46.4694 7.58419 48.648 11.5799 51.3677C10.8387 47.1998 10.6999 44.7303 11.0232 40.441L8.35088 43.5141C7.19157 37.9025 6.98606 34.5828 8.46223 29.4004C11.4062 20.8869 14.8313 18.1482 21.7123 14.1485L42.4225 5.04285L41.4408 14.7985C41.4408 14.7985 55.9157 27.6602 56.1384 28.457C56.361 29.2537 56.2515 31.4114 55.1158 32.7012C53.0864 34.2711 51.3301 34.5223 49.7713 33.9532C48.2124 33.3841 41.8653 28.9826 35.2964 30.5386C28.7275 32.0946 26.6255 34.4962 24.83 39.189C23.0344 43.8817 24.2658 49.0293 27.5022 54.4409C24.0077 51.5741 22.4666 49.6352 20.4875 45.5629C18.7502 40.9752 18.3961 37.9957 18.706 32.815C15.1429 37.9369 14.5565 46.7011 18.706 52.6198Z" fill="black"/>
</svg>
