<svg width="35" height="45" viewBox="0 0 35 45" fill="none" xmlns="http://www.w3.org/2000/svg">
<path d="M14.875 29.4515L27.2693 17.0572L25.4856 15.2736L14.875 25.8841L9.52886 20.538L7.7452 22.3216L14.875 29.4515V29.4515M17.5 44.7111C12.4776 43.2207 8.3053 40.1782 4.98318 35.5837C1.66106 30.9891 0 25.8136 0 20.0572V6.53798L17.5 -0.000488281L35 6.53798V20.0572C35 25.8136 33.339 30.9891 30.0169 35.5837C26.6947 40.1782 22.5225 43.2207 17.5 44.7111V44.7111M17.5 42.0572C21.8333 40.6822 25.4167 37.9322 28.25 33.8072C31.0833 29.6822 32.5 25.0989 32.5 20.0572V8.24472L17.5 2.6678L2.50002 8.24472V20.0572C2.50002 25.0989 3.91668 29.6822 6.75002 33.8072C9.58335 37.9322 13.1667 40.6822 17.5 42.0572V42.0572M17.5 22.3553V22.3553V22.3553V22.3553V22.3553V22.3553V22.3553V22.3553V22.3553V22.3553" fill="#3A7AFE"/>
</svg>
